<svg id="Layer_1" data-name="Layer 1" xmlns="http://www.w3.org/2000/svg" viewBox="0 0 453.17 454.57"><defs><style>.cls-1{fill:#3d286a;}</style></defs><title>6533 [Converted]</title><path class="cls-1" d="M327.46,131.1l-.3-2.25a6.42,6.42,0,1,0-1.66-12.74l-.3-2.25a8.69,8.69,0,0,1,2.26,17.24Z" transform="translate(-7.11 -8.39)"/><path class="cls-1" d="M112.73,370.36a12.48,12.48,0,0,1-3.41-.48,12.3,12.3,0,0,1-7.44-5.88l2.83-1.58A9.16,9.16,0,0,0,117.17,366a9.18,9.18,0,0,0,3.54-12.47l2.83-1.57a12.41,12.41,0,0,1-10.81,18.44Z" transform="translate(-7.11 -8.39)"/><path class="cls-1" d="M400.25,294.85a12.63,12.63,0,0,1,17-18.7L415,278.59a9.34,9.34,0,0,0-12.55,13.83Z" transform="translate(-7.11 -8.39)"/><path class="cls-1" d="M129.66,27.25a6.69,6.69,0,0,1-.39-13.36l.11,1.74a4.94,4.94,0,0,0-4.64,5.23,4.84,4.84,0,0,0,1.65,3.4A4.9,4.9,0,0,0,130,25.5l.1,1.74Z" transform="translate(-7.11 -8.39)"/><path class="cls-1" d="M456.6,252.43l-1.38-1.89a6.63,6.63,0,0,0,1.44-9.27,6.64,6.64,0,0,0-9.26-1.44L446,237.94a9,9,0,0,1,12.53,2,9,9,0,0,1-1.95,12.53Z" transform="translate(-7.11 -8.39)"/><path class="cls-1" d="M264.45,298.88l-1.91-3a10,10,0,1,0-10.81-16.81l-1.9-3a13.51,13.51,0,0,1,14.62,22.73Z" transform="translate(-7.11 -8.39)"/><path class="cls-1" d="M13,52.92A6.89,6.89,0,0,1,7.11,49.7l1.52-1a5.09,5.09,0,0,0,7,1.59,5.1,5.1,0,0,0,1.6-7l1.52-1A6.89,6.89,0,0,1,13,52.92Z" transform="translate(-7.11 -8.39)"/><path class="cls-1" d="M439.31,91.65a8.95,8.95,0,1,1,14-11.18l-1.82,1.46a6.61,6.61,0,1,0-10.33,8.26Z" transform="translate(-7.11 -8.39)"/><path class="cls-1" d="M195.14,293.74a14.12,14.12,0,0,1,18-21.78l-2.34,2.84a10.44,10.44,0,1,0-13.28,16.1Z" transform="translate(-7.11 -8.39)"/><path class="cls-1" d="M390.14,24.1h0a5.33,5.33,0,1,1-2.4.58,5.15,5.15,0,0,1,2.4-.58m0-2.37a7.57,7.57,0,0,0-3.47.83,7.69,7.69,0,0,0,3.48,14.56A7.71,7.71,0,0,0,397,26a7.69,7.69,0,0,0-6.87-4.22Z" transform="translate(-7.11 -8.39)"/><path class="cls-1" d="M86.68,173.5h0a3.55,3.55,0,0,1,.46,0,4.27,4.27,0,0,1-.44,8.52,3.62,3.62,0,0,1-.46,0,4.28,4.28,0,0,1,.44-8.53m0-1.9A6.18,6.18,0,0,0,86,183.93l.66,0a6.18,6.18,0,0,0,.64-12.33l-.66,0Z" transform="translate(-7.11 -8.39)"/><path class="cls-1" d="M424.77,141.1a4.47,4.47,0,0,1,1.25,8.77,4.45,4.45,0,0,1-1.25.18,4.47,4.47,0,0,1-1.25-8.77,4.45,4.45,0,0,1,1.25-.18m0-2a6.27,6.27,0,0,0-1.8.26,6.47,6.47,0,0,0,1.8,12.68,6.27,6.27,0,0,0,1.8-.26,6.47,6.47,0,0,0-1.8-12.68Z" transform="translate(-7.11 -8.39)"/><path class="cls-1" d="M200.18,19.44h0A6.71,6.71,0,0,1,203,20a6.72,6.72,0,0,1,3.32,8.87,6.71,6.71,0,0,1-6.1,3.93,6.5,6.5,0,0,1-2.77-.61,6.69,6.69,0,0,1,2.78-12.79m0-3a9.68,9.68,0,0,0-4,18.5,9.52,9.52,0,0,0,4,.88,9.69,9.69,0,0,0,0-19.38Z" transform="translate(-7.11 -8.39)"/><path class="cls-1" d="M328.75,222.11h0a4.92,4.92,0,0,1,0,9.84,6,6,0,0,1-.84-.07,4.92,4.92,0,0,1,.83-9.77m0-2.2A7.12,7.12,0,0,0,327.54,234a7.26,7.26,0,0,0,1.22.1A7.11,7.11,0,0,0,330,220a7.28,7.28,0,0,0-1.22-.11Z" transform="translate(-7.11 -8.39)"/><path class="cls-1" d="M82.45,232.6h0A5.8,5.8,0,1,1,78.86,243a5.8,5.8,0,0,1-1-8.14,5.74,5.74,0,0,1,4.57-2.23m0-2.58a8.38,8.38,0,1,0,5.17,1.78A8.37,8.37,0,0,0,82.45,230Z" transform="translate(-7.11 -8.39)"/><path class="cls-1" d="M28,429.21h0a4.06,4.06,0,1,1-2.44.83,4,4,0,0,1,2.44-.83m0-1.8a5.85,5.85,0,1,0,4.66,2.31A5.84,5.84,0,0,0,28,427.41Z" transform="translate(-7.11 -8.39)"/><path class="cls-1" d="M223.63,108.43h0a7.33,7.33,0,0,1,2.51,14.21,7.17,7.17,0,0,1-2.5.45,7.36,7.36,0,0,1-6.89-4.82,7.33,7.33,0,0,1,4.38-9.39,7.17,7.17,0,0,1,2.5-.45m0-3.27a10.62,10.62,0,0,0-9.95,14.23,10.6,10.6,0,1,0,9.95-14.23Z" transform="translate(-7.11 -8.39)"/><path class="cls-1" d="M225.93,414.76h0a4.08,4.08,0,0,1,1.84.43,4.17,4.17,0,0,1-1.85,7.92,4.18,4.18,0,0,1-3.74-6,4.16,4.16,0,0,1,3.75-2.33m0-1.87a6,6,0,1,0,2.67.63,5.94,5.94,0,0,0-2.67-.63Z" transform="translate(-7.11 -8.39)"/><path class="cls-1" d="M169.46,78.1l6.77,7.48-10,.93L159.41,79l10.05-.93m1-2.59L154.24,77,165.17,89.1l16.24-1.5L170.47,75.51Z" transform="translate(-7.11 -8.39)"/><path class="cls-1" d="M19.48,318.48l6.93,7.34-1.71,9.95-6.93-7.34,1.71-9.95m-1.61-5.32-2.76,16.07,11.2,11.86L29.07,325l-11.2-11.85Z" transform="translate(-7.11 -8.39)"/><path class="cls-1" d="M389.8,421.82l13.43,6.65L406,443.21l-13.43-6.65-2.74-14.74m-5-6.59,4.43,23.82L411,449.79,406.52,426l-21.71-10.75Z" transform="translate(-7.11 -8.39)"/><path class="cls-1" d="M87.77,73l7.34,2.59L97.44,83,90.1,80.39,87.77,73m-3-3.08,3.77,12,11.86,4.18-3.77-12L84.79,69.89Z" transform="translate(-7.11 -8.39)"/><path class="cls-1" d="M229.34,325.84l1.06,8.87-6.47,6.17L222.88,332l6.46-6.17m1.67-4.63-10.45,10,1.71,14.34,10.44-10L231,321.21Z" transform="translate(-7.11 -8.39)"/><path class="cls-1" d="M137.1,233.36l7.09,3.92,1.11,8-7.09-3.92-1.11-8m-2.52-3.68,1.8,13L147.82,249,146,236l-11.45-6.34Z" transform="translate(-7.11 -8.39)"/><path class="cls-1" d="M166.54,438.07l-3.31,6.79-7.42,1.42,3.31-6.79,7.42-1.42m3.3-2.53-12,2.3-5.35,11,12-2.29,5.35-11Z" transform="translate(-7.11 -8.39)"/><path class="cls-1" d="M246,186.47,237.65,199l-15.06.85L231,187.32l15.06-.85m7.22-4.12-24.34,1.36L215.37,204l24.35-1.36,13.51-20.29Z" transform="translate(-7.11 -8.39)"/><path class="cls-1" d="M53.82,15.88,63.7,26.15,61.41,40.21,51.53,29.94l2.29-14.06M51.48,8.39,47.79,31.11l16,16.59L67.44,25l-16-16.59Z" transform="translate(-7.11 -8.39)"/><path class="cls-1" d="M25.08,114.11a1.7,1.7,0,0,1-1.54-2.43,7.43,7.43,0,0,1,10.64-3.31A4,4,0,0,0,40,106.56a7.44,7.44,0,0,1,10.65-3.31,1.71,1.71,0,0,1-1.73,2.94,4.08,4.08,0,0,0-3.32-.43A4.14,4.14,0,0,0,43.09,108a7.44,7.44,0,0,1-10.64,3.31,4,4,0,0,0-5.82,1.81A1.72,1.72,0,0,1,25.08,114.11Z" transform="translate(-7.11 -8.39)"/><path class="cls-1" d="M359.89,187.23h-.05a1.12,1.12,0,0,1-1.07-1.16,2.63,2.63,0,0,0-2.84-2.78,5,5,0,0,1-3.74-1.37,4.89,4.89,0,0,1-1.45-3.72,2.62,2.62,0,0,0-2.85-2.78,1.15,1.15,0,0,1-1.17-1,1.12,1.12,0,0,1,1-1.18,5,5,0,0,1,3.75,1.38,4.87,4.87,0,0,1,1.44,3.71,2.63,2.63,0,0,0,2.84,2.79,4.92,4.92,0,0,1,3.75,1.38,4.87,4.87,0,0,1,1.45,3.71A1.12,1.12,0,0,1,359.89,187.23Z" transform="translate(-7.11 -8.39)"/><path class="cls-1" d="M335.87,400.37a1,1,0,0,1-1-1,1,1,0,0,1,1-1,2.43,2.43,0,0,0,1.81-.8,2.47,2.47,0,0,0,.58-1.9,4.41,4.41,0,0,1,4.37-4.94A2.38,2.38,0,0,0,345,388a1,1,0,0,1,.89-1.11,1,1,0,0,1,1.11.9,4.39,4.39,0,0,1-4.37,4.93,2.38,2.38,0,0,0-2.39,2.7,4.39,4.39,0,0,1-4.37,4.94Z" transform="translate(-7.11 -8.39)"/><path class="cls-1" d="M75.84,314.21a1.6,1.6,0,0,1-1-.36,6.91,6.91,0,0,1-.61-10.35,3.75,3.75,0,0,0-.34-5.67,6.93,6.93,0,0,1-.61-10.36,1.59,1.59,0,0,1,2.27,2.22,3.75,3.75,0,0,0,.34,5.67,6.92,6.92,0,0,1,.61,10.36,3.82,3.82,0,0,0-1.13,2.9,3.78,3.78,0,0,0,1.47,2.76,1.59,1.59,0,0,1-1,2.83Z" transform="translate(-7.11 -8.39)"/><path class="cls-1" d="M93,426.63a8.06,8.06,0,0,1-5.14-1.81,8.2,8.2,0,0,1-3-6,4.46,4.46,0,0,0-1.63-3.29,4.51,4.51,0,0,0-3.56-.92,8.14,8.14,0,0,1-9.48-7.69,1.87,1.87,0,0,1,3.73-.21A4.46,4.46,0,0,0,75.58,410a4.5,4.5,0,0,0,3.56.92,8.15,8.15,0,0,1,9.48,7.69,4.53,4.53,0,0,0,1.63,3.29,4.47,4.47,0,0,0,3.56.91,1.87,1.87,0,1,1,.56,3.7A8.51,8.51,0,0,1,93,426.63Z" transform="translate(-7.11 -8.39)"/><path class="cls-1" d="M15.4,171.86h-.2a1.27,1.27,0,0,1,.08-2.53,3,3,0,0,0,2.32-.9,3.07,3.07,0,0,0,.83-2.34A5.53,5.53,0,0,1,20,161.82a5.62,5.62,0,0,1,4.21-1.67,3.06,3.06,0,0,0,2.31-.9,3,3,0,0,0,.83-2.35,1.28,1.28,0,0,1,1.19-1.34,1.26,1.26,0,0,1,1.34,1.19,5.52,5.52,0,0,1-5.75,5.93,3,3,0,0,0-2.32.9,3.09,3.09,0,0,0-.83,2.35,5.51,5.51,0,0,1-5.55,5.93Z" transform="translate(-7.11 -8.39)"/><path class="cls-1" d="M168.94,183.73a5.81,5.81,0,0,1-2.84-.74,5.91,5.91,0,0,1-2.89-3.88,3.21,3.21,0,0,0-4.24-2.35,5.89,5.89,0,0,1-4.83-.4,6,6,0,0,1-2.9-3.89,1.36,1.36,0,0,1,2.64-.62,3.2,3.2,0,0,0,4.23,2.35,5.9,5.9,0,0,1,7.73,4.28,3.2,3.2,0,0,0,4.23,2.35,1.35,1.35,0,1,1,.86,2.56A6.3,6.3,0,0,1,168.94,183.73Z" transform="translate(-7.11 -8.39)"/><path class="cls-1" d="M27.39,243.82a1.61,1.61,0,0,1-1.16-.49,7.1,7.1,0,0,1,.61-10.64,3.89,3.89,0,0,0,1.49-2.83,3.94,3.94,0,0,0-1.16-3,7.1,7.1,0,0,1,.61-10.64,1.63,1.63,0,0,1,2,2.54,3.84,3.84,0,0,0-.33,5.82,7.12,7.12,0,0,1-.61,10.64,3.87,3.87,0,0,0-1.5,2.83,3.93,3.93,0,0,0,1.17,3,1.62,1.62,0,0,1,0,2.3A1.58,1.58,0,0,1,27.39,243.82Z" transform="translate(-7.11 -8.39)"/><path class="cls-1" d="M265.12,80.81a7,7,0,0,1-2.48-.45,1.56,1.56,0,0,1,1.09-2.93,3.7,3.7,0,0,0,5-2.59,6.84,6.84,0,0,1,9.08-4.73,3.7,3.7,0,0,0,5-2.59,1.57,1.57,0,0,1,3,.8,6.82,6.82,0,0,1-9.08,4.73,3.7,3.7,0,0,0-5,2.59,6.84,6.84,0,0,1-3.48,4.41A6.72,6.72,0,0,1,265.12,80.81Z" transform="translate(-7.11 -8.39)"/><path class="cls-1" d="M351.15,264.9a.91.91,0,0,1-.62-.24l-6-5.54a.93.93,0,1,1,1.25-1.37l6,5.54a.92.92,0,0,1,.05,1.31A.91.91,0,0,1,351.15,264.9Z" transform="translate(-7.11 -8.39)"/><path class="cls-1" d="M153.52,309.08a1,1,0,0,1-.74-.33l-5.72-6.47a1,1,0,0,1,1.47-1.3l5.72,6.48a1,1,0,0,1-.09,1.37A.92.92,0,0,1,153.52,309.08Z" transform="translate(-7.11 -8.39)"/><path class="cls-1" d="M113.31,129a1.16,1.16,0,0,1-.26-2.29l10-2.32a1.16,1.16,0,0,1,.52,2.27l-10,2.31A.74.74,0,0,1,113.31,129Z" transform="translate(-7.11 -8.39)"/><path class="cls-1" d="M321.44,40.64a1.1,1.1,0,0,1-.26-2.17l9.5-2.28a1.1,1.1,0,1,1,.51,2.14l-9.49,2.28A1.15,1.15,0,0,1,321.44,40.64Z" transform="translate(-7.11 -8.39)"/><path class="cls-1" d="M447.59,410.79a1,1,0,0,1-1-.78l-2.08-8.71a1,1,0,1,1,2-.47l2.08,8.71a1,1,0,0,1-.75,1.22Z" transform="translate(-7.11 -8.39)"/><path class="cls-1" d="M284,420.64a1,1,0,0,1-.89-.58l-3.52-7.92a1,1,0,1,1,1.79-.8l3.52,7.92a1,1,0,0,1-.5,1.29A.93.93,0,0,1,284,420.64Z" transform="translate(-7.11 -8.39)"/><path class="cls-1" d="M280.17,358.78a1.64,1.64,0,0,1-.09-3.27l14.47-.85a1.64,1.64,0,0,1,.19,3.27l-14.47.85Z" transform="translate(-7.11 -8.39)"/><path class="cls-1" d="M185.43,378.51a.86.86,0,0,1-.83-.62l-2.18-7.38a.87.87,0,1,1,1.67-.49l2.17,7.38a.86.86,0,0,1-.58,1.08Z" transform="translate(-7.11 -8.39)"/><path class="cls-1" d="M456.15,326.31H456l-12.61-1.51a1.45,1.45,0,0,1-1.26-1.6,1.43,1.43,0,0,1,1.6-1.25l12.61,1.51a1.43,1.43,0,0,1-.17,2.86Z" transform="translate(-7.11 -8.39)"/><polygon class="cls-1" points="386.71 219.6 384.07 216.98 397.41 203.56 410.82 216.9 408.2 219.54 397.43 208.83 386.71 219.6"/><polygon class="cls-1" points="328.97 324.44 326.57 323.07 332.16 313.3 322.39 307.72 323.76 305.32 335.92 312.28 328.97 324.44"/><polygon class="cls-1" points="251.26 454.57 244.02 444.44 246.01 443.01 251.83 451.14 259.96 445.33 261.38 447.32 251.26 454.57"/><polygon class="cls-1" points="375.28 86 361.99 83.49 364.5 70.19 367.12 70.69 365.1 81.37 375.77 83.38 375.28 86"/><polygon class="cls-1" points="264.72 16.49 251.73 5.6 253.88 3.04 264.3 11.79 273.05 1.36 275.61 3.5 264.72 16.49"/><polygon class="cls-1" points="275.57 154.38 273.91 144.86 264.38 146.52 263.98 144.18 275.84 142.11 277.91 153.98 275.57 154.38"/><polygon class="cls-1" points="442.94 22.13 432.55 13.89 434.17 11.84 442.51 18.46 449.13 10.11 451.18 11.73 442.94 22.13"/><polygon class="cls-1" points="330.31 447.91 325.24 438.41 315.74 443.48 314.5 441.15 326.33 434.84 332.63 446.67 330.31 447.91"/><polygon class="cls-1" points="389.17 343.65 376.15 330.75 378.69 328.18 389.14 338.54 399.5 328.09 402.07 330.63 389.17 343.65"/></svg>