<?xml version="1.0" encoding="utf-8"?>
<!-- Generator: Adobe Illustrator 22.1.0, SVG Export Plug-In . SVG Version: 6.00 Build 0)  -->
<svg version="1.1"
	 id="svg19487" inkscape:version="0.48.4 r9939" sodipodi:docname="UniWorld-Group-Logo.svg" xmlns:cc="http://creativecommons.org/ns#" xmlns:dc="http://purl.org/dc/elements/1.1/" xmlns:inkscape="http://www.inkscape.org/namespaces/inkscape" xmlns:rdf="http://www.w3.org/1999/02/22-rdf-syntax-ns#" xmlns:sodipodi="http://sodipodi.sourceforge.net/DTD/sodipodi-0.dtd" xmlns:svg="http://www.w3.org/2000/svg"
	 xmlns="http://www.w3.org/2000/svg" xmlns:xlink="http://www.w3.org/1999/xlink" x="0px" y="0px" viewBox="0 0 1225.6 520"
	 style="enable-background:new 0 0 1225.6 520;" xml:space="preserve">
<style type="text/css">
	.st0{fill:#FFFFFF;}
</style>
<sodipodi:namedview  bordercolor="#666666" borderopacity="1.0" fit-margin-bottom="0" fit-margin-left="0" fit-margin-right="0" fit-margin-top="0" id="base" inkscape:current-layer="layer1" inkscape:cx="612.79" inkscape:cy="260" inkscape:document-units="px" inkscape:pageopacity="0.0" inkscape:pageshadow="2" inkscape:window-height="990" inkscape:window-maximized="1" inkscape:window-width="1680" inkscape:window-x="-4" inkscape:window-y="-4" inkscape:zoom="1.2856837" pagecolor="#ffffff" showgrid="false">
	</sodipodi:namedview>
<g id="layer1" transform="translate(-110.81063,33.372519)" inkscape:groupmode="layer" inkscape:label="Ebene 1">
	<g id="g1876" transform="matrix(36.545366,0,0,-36.545366,1235.8699,196.66713)">
		<path id="path1878" inkscape:connector-curvature="0" class="st0" d="M0,0c-0.6-0.9-1.7-1.2-2.7-1c-0.9,0.3-1.5,1-1.8,1.8
			c-0.2,0.9,0,1.8,0.7,2.4c0.7,0.7,1.8,0.9,2.7,0.6c0.5-0.2,1-0.5,1.2-1C0.5,2,0.6,0.8,0,0 M2.4,2.8L2.4,2.8C2.3,3.1,2.1,3.4,2,3.7
			C1.1,5.2-0.5,6-2.1,6h-0.1c-1.6,0-3-0.9-3.9-2.3c-0.1-0.2-0.2-0.4-0.3-0.6c0-0.1-0.2-0.4-0.2-0.4c-0.1-0.1-0.1,0.1-0.1,0.1l0,3.3
			h-2.1h0l0-4.6c-0.1-0.7-0.3-1.4-0.9-1.9c-0.4-0.4-1-0.6-1.6-0.6c-0.6,0-1.2,0.2-1.6,0.6c-0.5,0.4-0.7,0.9-0.8,1.5h0V6h-2.1h0
			l0-4.6c-0.1-0.7-0.3-1.4-0.9-1.9c-0.4-0.4-1-0.6-1.6-0.6c-0.6,0-1.2,0.2-1.6,0.6c-0.6,0.5-0.9,1.2-0.9,1.9l0,4.6v0h-2.1l0-4.6
			c-0.1-0.7-0.3-1.4-0.9-1.9c-0.4-0.4-1-0.6-1.6-0.6c-0.6,0-1.2,0.2-1.6,0.6c-0.6,0.5-0.9,1.2-0.9,1.9l0,4.6h0h-2.1l0-4.9
			c0-0.2,0.1-0.4,0.1-0.6c0.4-1.7,1.8-3.2,3.6-3.6c1.8-0.3,3.5,0.3,4.6,1.6h0c1.2-1.2,2.8-1.9,4.6-1.6c1,0.2,1.9,0.8,2.5,1.6
			c1.2-1.2,2.8-1.9,4.6-1.6c1.7,0.3,3.2,1.9,3.6,3.6c0,0.1,0,0.2,0.1,0.3l0,0c0.3-1.6,1.2-2.8,2.5-3.4c1.4-0.7,3.2-0.6,4.5,0.2
			l0.1-0.1c0-0.2,0-0.5,0-0.7c0-0.6-0.2-1.2-0.7-1.7c-0.5-0.5-1.1-0.8-1.8-0.8c-0.7,0-1.3,0.3-1.8,0.8c-0.5,0.5-0.6,1.1-0.7,1.7
			l-2,0c0-1,0.3-1.9,0.9-2.7C-4.5-7.4-2.6-8-0.7-7.4C1-6.9,2.3-5.3,2.5-3.6V2C2.5,2.3,2.4,2.5,2.4,2.8"/>
	</g>
	<g id="g1880" transform="matrix(36.545366,0,0,-36.545366,155.74586,381.96324)">
		<path id="path1882" inkscape:connector-curvature="0" class="st0" d="M0,0c0-0.2-0.1-0.3-0.1-0.4c-0.1-0.1-0.2-0.1-0.3-0.1
			s-0.2,0-0.3,0.1C-0.9-0.3-1-0.2-1,0v1h0.2V0c0-0.3,0.2-0.3,0.3-0.3s0.3,0,0.3,0.3v1H0V0z"/>
	</g>
	<g id="g1884" transform="matrix(36.545366,0,0,-36.545366,192.93472,398.80685)">
		<path id="path1886" inkscape:connector-curvature="0" class="st0" d="M0,0v0.6c0,0.1,0,0.3-0.3,0.3c-0.2,0-0.3-0.1-0.3-0.3V0h-0.2
			v1.1h0.2V1h0c0.1,0.1,0.3,0.1,0.3,0.1c0.2,0,0.3-0.1,0.4-0.2c0-0.1,0.1-0.2,0.1-0.3V0H0z"/>
	</g>
	<path id="path1888" inkscape:connector-curvature="0" class="st0" d="M217,398.8h-7.3v-39h7.3V398.8z M217,355.3h-7.3v-8.6h7.3
		V355.3z"/>
	<g id="g1890" transform="matrix(36.545366,0,0,-36.545366,263.0796,398.80685)">
		<path id="path1892" inkscape:connector-curvature="0" class="st0" d="M0,0l-0.3,1h0l-0.3-1h-0.2l-0.4,1.4h0.2l0.3-1.1h0l0.3,1.1
			h0.2l0.3-1.1h0l0.3,1.1h0.2L0.2,0H0z"/>
	</g>
	<g id="g1894" transform="matrix(36.545366,0,0,-36.545366,305.99877,365.40088)">
		<path id="path1896" inkscape:connector-curvature="0" class="st0" d="M0,0c-0.2,0-0.4-0.2-0.4-0.4c0-0.2,0.2-0.4,0.4-0.4
			c0.2,0,0.4,0.2,0.4,0.4C0.4-0.2,0.2,0,0,0 M0-0.9c-0.4,0-0.6,0.3-0.6,0.6c0,0.3,0.2,0.6,0.6,0.6c0.3,0,0.6-0.3,0.6-0.6
			C0.6-0.6,0.4-0.9,0-0.9"/>
	</g>
	<g id="g1898" transform="matrix(36.545366,0,0,-36.545366,334.51146,398.80685)">
		<path id="path1900" inkscape:connector-curvature="0" class="st0" d="M0,0v1.1h0.2V1h0c0.1,0.1,0.2,0.1,0.3,0.1V0.9
			c0,0-0.1,0-0.1,0c-0.1,0-0.1-0.1-0.1-0.3V0H0z"/>
	</g>
	<path id="path1902" inkscape:connector-curvature="0" class="st0" d="M365.8,398.8h-7.3v-52.2h7.3V398.8z"/>
	<g id="g1904" transform="matrix(36.545366,0,0,-36.545366,393.87926,365.40088)">
		<path id="path1906" inkscape:connector-curvature="0" class="st0" d="M0,0c-0.2,0-0.4-0.2-0.4-0.4c0-0.2,0.2-0.4,0.4-0.4
			c0.2,0,0.4,0.2,0.4,0.4C0.4-0.2,0.2,0,0,0 M0.4-0.9v0.2h0C0.3-0.9,0.1-0.9,0-0.9c-0.4,0-0.6,0.3-0.6,0.6c0,0.3,0.2,0.6,0.6,0.6
			c0.1,0,0.3-0.1,0.4-0.2h0v0.5h0.2v-1.4C0.6-0.9,0.4-0.9,0.4-0.9z"/>
	</g>
	<g id="g1908" transform="matrix(36.545366,0,0,-36.545366,482.20941,359.76559)">
		<path id="path1910" inkscape:connector-curvature="0" class="st0" d="M0,0c-0.1,0.1-0.2,0.2-0.4,0.2c-0.3,0-0.5-0.3-0.5-0.6
			c0-0.3,0.3-0.5,0.5-0.5c0,0,0.4,0,0.5,0.4h-0.7v0.2h0.9c0-0.5-0.4-0.7-0.7-0.7c-0.4,0-0.7,0.3-0.7,0.7c0,0.4,0.3,0.7,0.7,0.7
			c0.2,0,0.5-0.1,0.6-0.4H0z"/>
	</g>
	<g id="g1912" transform="matrix(36.545366,0,0,-36.545366,501.64424,398.80685)">
		<path id="path1914" inkscape:connector-curvature="0" class="st0" d="M0,0v1.1h0.2V1h0c0.1,0.1,0.2,0.1,0.3,0.1V0.9
			c0,0-0.1,0-0.1,0c-0.1,0-0.1-0.1-0.1-0.3V0H0z"/>
	</g>
	<g id="g1916" transform="matrix(36.545366,0,0,-36.545366,541.81139,365.40088)">
		<path id="path1918" inkscape:connector-curvature="0" class="st0" d="M0,0c-0.2,0-0.4-0.2-0.4-0.4c0-0.2,0.2-0.4,0.4-0.4
			c0.2,0,0.4,0.2,0.4,0.4C0.4-0.2,0.2,0,0,0 M0-0.9c-0.4,0-0.6,0.3-0.6,0.6c0,0.3,0.2,0.6,0.6,0.6c0.3,0,0.6-0.3,0.6-0.6
			C0.6-0.6,0.4-0.9,0-0.9"/>
	</g>
	<g id="g1920" transform="matrix(36.545366,0,0,-36.545366,577.58931,359.76559)">
		<path id="path1922" inkscape:connector-curvature="0" class="st0" d="M0,0v-0.6c0-0.3,0.1-0.3,0.3-0.3c0.2,0,0.3,0.1,0.3,0.3V0
			h0.2v-1.1H0.6V-1h0C0.5-1,0.4-1.1,0.2-1.1C0.1-1.1,0-1.1-0.1-1c-0.1,0.1-0.1,0.2-0.1,0.4l0,0.6H0z"/>
	</g>
	<g id="g1924" transform="matrix(36.545366,0,0,-36.545366,634.49395,365.40088)">
		<path id="path1926" inkscape:connector-curvature="0" class="st0" d="M0,0c-0.2,0-0.4-0.2-0.4-0.4c0-0.2,0.2-0.4,0.4-0.4
			c0.2,0,0.4,0.2,0.4,0.4C0.4-0.2,0.2,0,0,0 M-0.6,0.2h0.2V0h0C-0.3,0.1-0.1,0.2,0,0.2c0.4,0,0.6-0.3,0.6-0.6c0-0.3-0.2-0.5-0.5-0.5
			c-0.2,0-0.3,0.1-0.4,0.2h0v-0.5h-0.2C-0.6-1.3-0.6,0.2-0.6,0.2z"/>
	</g>
	<g id="g1928" transform="matrix(36.545366,0,0,-36.545366,669.5775,398.02127)">
		<path id="path1930" inkscape:connector-curvature="0" class="st0" d="M0,0c0-0.1,0-0.2-0.2-0.3v0.1c0,0,0.1,0,0.1,0.1v0h-0.1v0.2
			H0L0,0z"/>
	</g>
	<path id="path1932" inkscape:connector-curvature="0" class="st0" d="M695.5,346.6h7.6v52.2h-7.6V346.6z"/>
	<g id="g1934" transform="matrix(36.545366,0,0,-36.545366,740.29278,398.80685)">
		<path id="path1936" inkscape:connector-curvature="0" class="st0" d="M0,0v0.6c0,0.1,0,0.3-0.3,0.3c-0.2,0-0.3-0.1-0.3-0.3V0h-0.2
			v1.1h0.2V1h0c0.1,0.1,0.3,0.1,0.3,0.1c0.2,0,0.3-0.1,0.4-0.2c0-0.1,0.1-0.2,0.1-0.3V0H0z"/>
	</g>
	<g id="g1938" transform="matrix(36.545366,0,0,-36.545366,786.10225,372.75381)">
		<path id="path1940" inkscape:connector-curvature="0" class="st0" d="M0,0c0,0.1-0.1,0.2-0.3,0.2c-0.3,0-0.4-0.2-0.4-0.4
			c0-0.2,0.1-0.4,0.3-0.4c0.2,0,0.3,0.1,0.3,0.2h0.2C0.1-0.6-0.1-0.7-0.3-0.7c-0.4,0-0.5,0.3-0.5,0.6c0,0.3,0.2,0.6,0.5,0.6
			C0,0.4,0.2,0.2,0.2,0H0z"/>
	</g>
	<path id="path1942" inkscape:connector-curvature="0" class="st0" d="M802.6,390.2h7.3v8.6h-7.3V390.2z"/>
</g>
</svg>
