<?xml version="1.0" encoding="utf-8"?>
<!-- Generator: Adobe Illustrator 22.1.0, SVG Export Plug-In . SVG Version: 6.00 Build 0)  -->
<svg version="1.1" id="Layer_1" xmlns="http://www.w3.org/2000/svg" xmlns:xlink="http://www.w3.org/1999/xlink" x="0px" y="0px"
	 viewBox="0 0 512 512" style="enable-background:new 0 0 512 512;" xml:space="preserve">
<style type="text/css">
	.st0{fill:#3F3F3F;}
</style>
<g>
	<g>
		<path class="st0" d="M457.7,54.3C422.6,19.3,376.1,0,326.5,0s-96.1,19.3-131.1,54.3s-54.3,81.6-54.3,131.1
			c0,45.4,16.2,88.4,46,122.2l-23.6,23.6l-23.3-23.3c-2.3-2.3-5.4-3.6-8.6-3.6c-3.2,0-6.4,1.3-8.6,3.6l-106,106
			c-22.4,22.4-22.4,58.9,0,81.3C28,506.4,42.7,512,57.4,512s29.4-5.6,40.6-16.8l106-106c4.8-4.8,4.8-12.5,0-17.3l-23.3-23.3
			l23.6-23.6c33.8,29.7,76.8,46,122.2,46c49.5,0,96.1-19.3,131.1-54.3c35-35,54.3-81.6,54.3-131.1S492.7,89.4,457.7,54.3z
			 M80.8,477.9c-12.9,12.9-33.8,12.9-46.7,0c-12.9-12.9-12.9-33.8,0-46.7L94,371.4l46.7,46.7L80.8,477.9z M157.9,400.7l-46.7-46.7
			l20.2-20.2l46.7,46.7L157.9,400.7z M440.4,299.3c-30.4,30.4-70.8,47.2-113.9,47.2s-83.4-16.7-113.9-47.2s-47.2-70.8-47.2-113.9
			s16.7-83.4,47.2-113.9c30.4-30.4,70.8-47.2,113.9-47.2S410,41.2,440.4,71.6C503.2,134.4,503.2,236.5,440.4,299.3z"/>
	</g>
</g>
<g>
	<g>
		<path class="st0" d="M417.1,94.8c-50-50-131.3-50-181.2,0c-24.2,24.2-37.5,56.4-37.5,90.6c0,34.2,13.3,66.4,37.5,90.6
			c25,25,57.8,37.5,90.6,37.5s65.6-12.5,90.6-37.5c24.2-24.2,37.5-56.4,37.5-90.6C454.7,151.2,441.4,119.1,417.1,94.8z M399.9,258.8
			c-40.4,40.4-106.2,40.4-146.7,0c-19.6-19.6-30.4-45.6-30.4-73.3s10.8-53.7,30.4-73.3c20.2-20.2,46.8-30.3,73.3-30.3
			c26.6,0,53.1,10.1,73.3,30.3c19.6,19.6,30.4,45.6,30.4,73.3C430.2,213.2,419.4,239.2,399.9,258.8z"/>
	</g>
</g>
</svg>
